<svg xmlns="http://www.w3.org/2000/svg" xml:space="preserve" viewBox="0 0 48 48" id="happy">
  <symbol id="New_Symbol_14" viewBox="-6.5 -6.5 13 13">
    <path fill="#FFD4C3" stroke="#504B46" stroke-linecap="round" stroke-linejoin="round" stroke-miterlimit="10" d="M0-6c2.2 0 4.1 1.5 4.7 3.5C6.3-2.5 6.4 0 5 0v1c0 2.8-2.2 5-5 5s-5-2.2-5-5V0c-1.4 0-1.3-2.5.2-2.5C-4.1-4.5-2.2-6 0-6z" style="fill:#ffd4c3;stroke:#504b46;stroke-linecap:round;stroke-linejoin:round;stroke-miterlimit:10"></path>
    <circle cx="-1.6" cy="-.1" r=".1" style="fill:#ffc258"></circle>
    <path d="M-1.6.5c-.3 0-.6-.3-.6-.6s.2-.7.6-.7c.3 0 .6.3.6.7s-.3.6-.6.6z" style="fill:#4f4b45"></path>
    <circle cx="1.6" cy="-.1" r=".1" style="fill:#ffc258"></circle>
    <path d="M1.6.5C1.3.5 1 .2 1-.1s.3-.6.6-.6.6.3.6.6-.2.6-.6.6z" style="fill:#4f4b45"></path>
    <circle cx="-3" cy="-1.5" r=".5" style="fill:#fabfa5"></circle>
    <circle cx="3" cy="-1.5" r=".5" style="fill:#fabfa5"></circle>
    <path fill="none" stroke="#504B46" stroke-linecap="round" stroke-linejoin="round" stroke-miterlimit="10" d="M-1.2-3c.8-.5 1.7-.5 2.5 0" style="fill:none;stroke:#504b46;stroke-linecap:round;stroke-linejoin:round;stroke-miterlimit:10"></path>
  </symbol>
  <g id="Icons">
    <g id="XMLID_2_">
      <circle id="XMLID_7676_" cx="20.8" cy="21.5" r="20" fill="#FFE500" style="fill:#ffe500"></circle>
      <path id="XMLID_7673_" fill="#EBCB00" d="M20.8 1.5c-11 0-20 9-20 20s9 20 20 20 20-9 20-20-9-20-20-20zm0 37c-10.1 0-18.2-8.2-18.2-18.2C2.5 10.1 10.7 2 20.8 2S39 10.1 39 20.2s-8.2 18.3-18.2 18.3z" style="fill:#ebcb00"></path>
      <ellipse id="XMLID_7672_" cx="20.8" cy="5.5" fill="#FFF48C" rx="6" ry="1.5" style="fill:#fff48c"></ellipse>
      <ellipse id="XMLID_7671_" cx="20.8" cy="45" fill="#45413C" opacity=".15" rx="16" ry="1.5" style="opacity:.15;fill:#45413c"></ellipse>
      <circle id="XMLID_7670_" cx="20.8" cy="21.5" r="20" style="fill:none;stroke:#45413c;stroke-linecap:round;stroke-linejoin:round;stroke-miterlimit:10"></circle>
      <ellipse id="XMLID_7669_" cx="32.8" cy="26.5" rx="2.5" ry="1.5" style="fill:#ffaa54"></ellipse>
      <ellipse id="XMLID_7668_" cx="8.7" cy="26.5" rx="2.5" ry="1.5" style="fill:#ffaa54"></ellipse>
      <path id="XMLID_7667_" d="M6.8 22.7c0-1 .8-1.8 1.8-1.8s1.8.8 1.8 1.8" style="fill:none;stroke:#45413c;stroke-linecap:round;stroke-linejoin:round;stroke-miterlimit:10"></path>
      <path id="XMLID_7666_" d="M31.2 22.7c0-1 .8-1.8 1.8-1.8s1.8.8 1.8 1.8" style="fill:none;stroke:#45413c;stroke-linecap:round;stroke-linejoin:round;stroke-miterlimit:10"></path>
      <path id="XMLID_7665_" d="m42.4 30.6 4.5-1.5c.2-.1.3-.2.3-.4s-.1-.3-.3-.4l-3.7-1.2c-.5-.2-.9-.6-1.1-1.1l-1.2-3.7c-.1-.2-.2-.3-.4-.3s-.3.1-.4.3L38.9 26c-.2.5-.6.9-1.1 1.1L34 28.3c-.2.1-.3.2-.3.4s.1.3.3.4l3.7 1.2c.5.2.9.6 1.1 1.1l1.2 3.7c.1.2.2.3.4.3s.3-.1.4-.3l1.6-4.5z" style="stroke:#45413c;stroke-linecap:round;stroke-linejoin:round;stroke-miterlimit:10;fill:#fff"></path>
      <g id="XMLID_7658_">
        <path id="XMLID_7664_" d="M20.8 36.5c9.2 0 10.4-3.8 9.9-7-.3-1.9-2.5-3.1-4.6-2.4-1.5.5-3.4.8-5.3.8s-3.8-.3-5.3-.8c-2-.7-4.2.5-4.6 2.4-.6 3.2.6 7 9.9 7z" style="stroke:#45413c;stroke-linecap:round;stroke-linejoin:round;stroke-miterlimit:10;fill:#fff"></path>
        <g id="XMLID_7659_">
          <path id="XMLID_7663_" d="M30.7 30.2c-1 .5-2.5 1-4.6 1.4-1.5.2-3.2.4-5.4.4s-3.9-.2-5.4-.4c-2.1-.4-3.6-.9-4.6-1.4" style="fill:none;stroke:#45413c;stroke-linecap:round;stroke-linejoin:round;stroke-miterlimit:10"></path>
          <path id="XMLID_7662_" d="m16 27.4-.6 4.2-.7 4.1" style="fill:none;stroke:#45413c;stroke-linecap:round;stroke-linejoin:round;stroke-miterlimit:10"></path>
          <path id="XMLID_7661_" d="M20.8 36.5V28" style="fill:none;stroke:#45413c;stroke-linecap:round;stroke-linejoin:round;stroke-miterlimit:10"></path>
          <path id="XMLID_7660_" d="m25.5 27.4.6 4.2.7 4.1" style="fill:none;stroke:#45413c;stroke-linecap:round;stroke-linejoin:round;stroke-miterlimit:10"></path>
        </g>
      </g>
    </g>
  </g>
</svg>
